<?xml version="1.0" encoding="UTF-8" standalone="no"?>
<svg xmlns="http://www.w3.org/2000/svg" xmlns:xlink="http://www.w3.org/1999/xlink" width="966.000mm" height="643.000mm" viewBox="0.000000 -643.000000 966.000000 643.000000">
    <path transform="matrix(1,0,0,-1,0,-643)" style="stroke:#000000;stroke-width:0.05mm;fill:none" d="M0,-383L0,-423L5,-423L5,-483L0,-483L0,-543L5,-543L5,-603L0,-603L0,-643L70,-643L70,-638L130,-638L130,-643L190,-643L190,-638L250,-638L250,-643L310,-643L320,-643L320,-603L315,-603L315,-543L320,-543L320,-483L315,-483L315,-423L320,-423L320,-383L250,-383L250,-388L190,-388L190,-383L130,-383L130,-388L70,-388L70,-383L10,-383L0,-383z"/>
    <path transform="matrix(1,0,0,-1,-80,-552.999512)" style="stroke:#000000;stroke-width:0.05mm;fill:none" d="M197.895996,-532.638977L193.681,-532.638977L193.681,-514.637024C193.681,-512.369019,193.164673,-510.676331,192.132004,-509.55899C191.099335,-508.44165,189.482666,-507.882996,187.281998,-507.882996C186.481567,-507.877289,185.682388,-507.94693,184.895004,-508.091003C184.009003,-508.260345,183.22467,-508.532654,182.542007,-508.90799C181.91333,-509.250183,181.351639,-509.703125,180.884003,-510.244995C180.364624,-510.867126,179.959076,-511.575989,179.686005,-512.338989C179.205338,-513.618958,178.932663,-515.213989,178.867996,-517.124023C178.857834,-517.428955,178.852829,-517.733948,178.852997,-518.039001L178.852997,-532.638977L174.638,-532.638977L174.638,-504.811005L178.065002,-504.811005L178.751007,-508.619995L178.953995,-508.619995C179.774719,-507.324005,180.92955,-506.273132,182.296997,-505.578003C182.392212,-505.528168,182.488251,-505.479828,182.585007,-505.433014C183.859955,-504.8237,185.236969,-504.456482,186.645996,-504.350006C187.026505,-504.318512,187.408188,-504.302826,187.789993,-504.303009C188.739014,-504.297058,189.686813,-504.372345,190.623001,-504.528015C191.643005,-504.704681,192.556671,-504.985321,193.363998,-505.369995C194.096252,-505.713409,194.768768,-506.171875,195.356003,-506.727997C196.155487,-507.510742,196.764465,-508.466644,197.136002,-509.522003C197.42067,-510.290009,197.625336,-511.149323,197.75,-512.099976C197.850311,-512.890991,197.899078,-513.687683,197.895996,-514.484985L197.895996,-532.638977z"/>
    <path transform="matrix(1,0,0,-1,-80,-552.999512)" style="stroke:#000000;stroke-width:0.05mm;fill:none" d="M116.925003,-504.811005L116.925003,-508.085999L109.841003,-508.085999L109.841003,-532.638977L105.625999,-532.638977L105.625999,-508.085999L100.649002,-508.085999L100.649002,-506.182007L105.625999,-504.658997L105.625999,-503.109985C105.611107,-501.808655,105.74498,-500.509918,106.025002,-499.239014C107.019669,-494.980988,109.874329,-492.85199,114.588997,-492.85199C115.231667,-492.855499,115.873291,-492.904602,116.509003,-492.998993C117.132332,-493.088318,117.790337,-493.218323,118.483002,-493.389008C118.91449,-493.495819,119.343246,-493.61319,119.768997,-493.740997L118.677002,-497.118011C117.051666,-496.593323,115.663673,-496.330994,114.513,-496.330994C114.051453,-496.326447,113.591049,-496.378174,113.141998,-496.484985C112.271439,-496.682281,111.503349,-497.191742,110.983002,-497.916992C110.70472,-498.315796,110.487648,-498.753998,110.338997,-499.21701C110.007004,-500.202332,109.841003,-501.466003,109.841003,-503.007996L109.841003,-504.811005L116.925003,-504.811005z"/>
    <path transform="matrix(1,0,0,-1,-80,-552.999512)" style="stroke:#000000;stroke-width:0.05mm;fill:none" d="M219.350998,-529.161011L219.350998,-532.38501C219.191315,-532.460449,219.026978,-532.525574,218.858994,-532.580017C218.45166,-532.715332,217.942673,-532.832336,217.332001,-532.93103C216.936829,-532.995728,216.539581,-533.047424,216.141006,-533.085999C215.766327,-533.121338,215.410995,-533.141296,215.074997,-533.145996C215.027695,-533.146667,214.980301,-533.146973,214.932999,-533.146973C210.639664,-533.146973,208.058334,-531.343323,207.188995,-527.736023C206.957428,-526.720886,206.846329,-525.682068,206.858002,-524.640991L206.858002,-508.085999L202.871994,-508.085999L202.871994,-506.054993L206.858002,-504.303009L208.636002,-498.362L211.072998,-498.362L211.072998,-504.811005L219.147003,-504.811005L219.147003,-508.085999L211.072998,-508.085999L211.072998,-524.463013C211.070023,-524.962646,211.111191,-525.461609,211.195999,-525.953979C211.293335,-526.499329,211.448669,-526.987671,211.662003,-527.419006C211.822495,-527.745972,212.02597,-528.049988,212.266998,-528.322998C212.889908,-529.024597,213.74408,-529.479187,214.673996,-529.604004C214.961243,-529.647705,215.25145,-529.669067,215.542007,-529.66803C216.220642,-529.669434,216.898468,-529.620972,217.570007,-529.52301C217.613388,-529.516602,217.656693,-529.509888,217.699997,-529.502991C217.903458,-529.471069,218.106476,-529.436401,218.309006,-529.398987C218.724335,-529.321655,219.071671,-529.242371,219.350998,-529.161011z"/>
    <path transform="matrix(1,0,0,-1,-80,-552.999512)" style="stroke:#000000;stroke-width:0.05mm;fill:none" d="M138.024002,-504.608002L137.440002,-508.518005C136.998169,-508.419403,136.552856,-508.337006,136.104996,-508.270996C135.660339,-508.207001,135.240662,-508.165985,134.845993,-508.14801C134.695435,-508.14093,134.544724,-508.137238,134.393997,-508.136993C132.348236,-508.123871,130.390778,-508.969452,128.998001,-510.467987C128.867188,-510.60144,128.740128,-510.738495,128.617004,-510.878998C127.297897,-512.394165,126.48597,-514.284119,126.294998,-516.283997C126.242844,-516.757202,126.21714,-517.232971,126.218002,-517.708984L126.218002,-532.638977L122.002998,-532.638977L122.002998,-504.811005L125.481003,-504.811005L125.963997,-509.964996L126.167,-509.964996C126.622063,-509.157349,127.154922,-508.396057,127.758003,-507.691986C128.383774,-506.961456,129.103729,-506.317169,129.899002,-505.776001C131.311188,-504.807434,132.985611,-504.293518,134.697998,-504.303009C135.276505,-504.301758,135.854721,-504.326447,136.431,-504.377014C136.965973,-504.423645,137.497818,-504.500763,138.024002,-504.608002z"/>
    <path transform="matrix(1,0,0,-1,-80,-552.999512)" style="stroke:#000000;stroke-width:0.05mm;fill:none" d="M166.862,-522.934998C167.128891,-521.539368,167.258514,-520.120972,167.248993,-518.700012C167.249023,-518.476624,167.246033,-518.253296,167.240005,-518.030029C167.197998,-516.485352,167.009995,-515.057312,166.675995,-513.745972C166.182159,-511.689392,165.198578,-509.782593,163.809006,-508.187988C162.44548,-506.627441,160.670059,-505.482422,158.686005,-504.884003C157.336563,-504.484863,155.935181,-504.289063,154.528,-504.303009C150.499329,-504.303009,147.350998,-505.568329,145.082993,-508.098999C144.538055,-508.708008,144.058746,-509.372681,143.653,-510.082001C142.918335,-511.362,142.388992,-512.823669,142.065002,-514.46698C141.799957,-515.862183,141.671356,-517.279907,141.681,-518.700012C141.676254,-519.843567,141.764542,-520.985718,141.945007,-522.11499C142.176071,-523.588013,142.617233,-525.020264,143.255005,-526.367981C143.352448,-526.570435,143.454819,-526.770569,143.561996,-526.968018C144.523727,-528.792725,145.962051,-530.322632,147.723999,-531.39502C148.568069,-531.906067,149.473206,-532.308533,150.417999,-532.593018C151.694626,-532.970093,153.019897,-533.156738,154.350998,-533.146973C155.308823,-533.151123,156.265167,-533.071167,157.209,-532.90802C159.758972,-532.50885,162.093796,-531.243958,163.820999,-529.325989C164.351517,-528.733643,164.820587,-528.088989,165.220993,-527.401978C165.98233,-526.099304,166.529343,-524.610352,166.862,-522.934998z"/>
    <path transform="matrix(1,0,0,-1,-80,-552.999512)" style="stroke:#000000;stroke-width:0.05mm;fill:none" d="M146.048004,-518.700012C146.04274,-519.71991,146.11058,-520.738892,146.251007,-521.749023C146.554337,-523.845642,147.197662,-525.537659,148.181,-526.825012C149.276413,-528.262573,150.891556,-529.213562,152.679993,-529.473999C153.265503,-529.572205,153.858322,-529.620361,154.451996,-529.617981C155.323441,-529.626404,156.192123,-529.518494,157.035004,-529.296997C158.508942,-528.913696,159.811966,-528.047607,160.735992,-526.836975C162.166672,-524.983643,162.882004,-522.271362,162.882004,-518.700012C162.887177,-517.697571,162.820679,-516.695984,162.682999,-515.703003C162.535675,-514.685669,162.307663,-513.765015,161.998993,-512.940979C161.697281,-512.113708,161.271393,-511.337158,160.735992,-510.638C159.670898,-509.272522,158.133423,-508.355042,156.425995,-508.06601C155.758408,-507.94043,155.080292,-507.87915,154.401001,-507.882996C153.559677,-507.875519,152.720764,-507.973969,151.904007,-508.175995C150.414383,-508.532654,149.091522,-509.388,148.154999,-510.600006C147.558289,-511.389496,147.100403,-512.274841,146.800995,-513.218018C146.534332,-514.02002,146.338333,-514.911682,146.212997,-515.893005C146.098923,-516.82428,146.043823,-517.76178,146.048004,-518.700012z"/>
    <path transform="matrix(1,0,0,-1,0,-643)" style="stroke:#000000;stroke-width:0.05mm;fill:none" d="M328,-383L328,-423L323,-423L323,-483L328,-483L328,-543L323,-543L323,-603L328,-603L328,-643L393,-643L393,-638L453,-638L453,-643L513,-643L513,-638L573,-638L573,-643L633,-643L638,-643L638,-603L643,-603L643,-543L638,-543L638,-483L643,-483L643,-423L638,-423L638,-383L573,-383L573,-388L513,-388L513,-383L453,-383L453,-388L393,-388L393,-383L333,-383L328,-383z"/>
    <path transform="matrix(1,0,0,-1,0,-643)" style="stroke:#000000;stroke-width:0.05mm;fill:none" d="M501.497009,-504.811005L501.497009,-508.085999L494.412994,-508.085999L494.412994,-532.638977L490.197998,-532.638977L490.197998,-508.085999L485.221985,-508.085999L485.221985,-506.182007L490.197998,-504.658997L490.197998,-503.109985C490.183105,-501.808685,490.316956,-500.509918,490.596985,-499.239014C491.591644,-494.980988,494.44632,-492.85199,499.161011,-492.85199C499.804016,-492.855438,500.445953,-492.904572,501.082001,-492.998993C501.704651,-493.088318,502.362671,-493.218323,503.056,-493.389008C503.487183,-493.49585,503.915558,-493.61319,504.341003,-493.740997L503.248993,-497.118011C501.624329,-496.593323,500.236328,-496.330994,499.084991,-496.330994C498.623779,-496.326569,498.163727,-496.378265,497.714996,-496.484985C496.844421,-496.682281,496.076355,-497.191742,495.556,-497.916992C495.277374,-498.315735,495.059998,-498.753906,494.911011,-499.21701C494.57901,-500.202332,494.412994,-501.466003,494.412994,-503.007996L494.412994,-504.811005L501.497009,-504.811005z"/>
    <path transform="matrix(1,0,0,-1,0,-643)" style="stroke:#000000;stroke-width:0.05mm;fill:none" d="M481.769012,-516.820984L481.769012,-519.487L462.598999,-519.487C462.683685,-522.753662,463.508667,-525.233337,465.074005,-526.926025C466.149719,-528.077026,467.554199,-528.868286,469.096008,-529.192017C469.947021,-529.380127,470.816498,-529.47168,471.687988,-529.465027C474.547577,-529.455322,477.37851,-528.894775,480.026001,-527.814026C480.209869,-527.740173,480.392914,-527.664124,480.575012,-527.585999L480.575012,-531.343994C479.820953,-531.671631,479.051361,-531.96228,478.269012,-532.215027C477.637878,-532.418823,476.996674,-532.590088,476.347992,-532.728027C475.767578,-532.847717,475.181519,-532.938171,474.59201,-532.999023C473.670654,-533.097656,472.652008,-533.146973,471.536011,-533.146973C470.155029,-533.158691,468.778107,-532.995789,467.437988,-532.661987C465.284027,-532.13269,463.326996,-530.996826,461.799011,-529.388977C459.557678,-527.02832,458.372345,-523.803345,458.243011,-519.713989C458.235016,-519.460693,458.231018,-519.207397,458.230988,-518.953979C458.221283,-517.481018,458.358612,-516.010742,458.640991,-514.565002C459.001007,-512.786316,459.598328,-511.205994,460.433014,-509.824005C460.763184,-509.276276,461.134918,-508.754761,461.545013,-508.264008C463.493103,-505.897675,466.354828,-504.470459,469.416992,-504.338013C469.75882,-504.314545,470.101379,-504.302856,470.444,-504.303009C473.931335,-504.303009,476.690643,-505.450012,478.721985,-507.743988C480.062469,-509.278076,480.982391,-511.133453,481.391998,-513.129028C481.650787,-514.342407,481.777222,-515.580322,481.769012,-516.820984z"/>
    <path transform="matrix(1,0,0,-1,0,-643)" style="stroke:#000000;stroke-width:0.05mm;fill:none" d="M519.372009,-529.161011L519.372009,-532.38501C519.21228,-532.460449,519.047974,-532.525574,518.880005,-532.580017C518.473328,-532.715332,517.964661,-532.832336,517.354004,-532.93103C516.958496,-532.995728,516.560974,-533.047424,516.161987,-533.085999C515.788025,-533.121338,515.432983,-533.141296,515.096985,-533.145996C515.049377,-533.146667,515.001648,-533.146973,514.953979,-533.146973C510.660675,-533.146973,508.079681,-531.343323,507.210999,-527.736023C506.979462,-526.720886,506.868347,-525.682068,506.880005,-524.640991L506.880005,-508.085999L502.894012,-508.085999L502.894012,-506.054993L506.880005,-504.303009L508.657013,-498.362L511.095001,-498.362L511.095001,-504.811005L519.169006,-504.811005L519.169006,-508.085999L511.095001,-508.085999L511.095001,-524.463013C511.091675,-524.962585,511.132507,-525.461548,511.21701,-525.953979C511.314331,-526.499329,511.470001,-526.987671,511.68399,-527.419006C511.844177,-527.745911,512.047302,-528.049927,512.288025,-528.322998C512.91095,-529.024597,513.765076,-529.479187,514.695007,-529.604004C514.982239,-529.647705,515.272461,-529.669067,515.562988,-529.66803C516.241638,-529.669434,516.919434,-529.620972,517.591003,-529.52301C517.634644,-529.516602,517.678406,-529.509888,517.721985,-529.502991C517.92511,-529.471069,518.127869,-529.436401,518.330017,-529.398987C518.745361,-529.321655,519.092651,-529.242371,519.372009,-529.161011z"/>
    <path transform="matrix(1,0,0,-1,0,-643)" style="stroke:#000000;stroke-width:0.05mm;fill:none" d="M450.842987,-493.131012L450.842987,-532.638977L446.627991,-532.638977L446.627991,-493.131012L450.842987,-493.131012z"/>
    <path transform="matrix(1,0,0,-1,0,-643)" style="stroke:#000000;stroke-width:0.05mm;fill:none" d="M462.700012,-516.059021L477.248993,-516.059021C477.253235,-515.285889,477.195038,-514.513733,477.075012,-513.75C476.940338,-512.924011,476.727325,-512.180664,476.436005,-511.519989C476.190308,-510.954742,475.865753,-510.427155,475.471985,-509.953003C474.286652,-508.539001,472.593994,-507.832001,470.394012,-507.832001C468.159332,-507.832001,466.377655,-508.559998,465.049011,-510.015991C464.319061,-510.829285,463.756348,-511.778351,463.393005,-512.809021C463.113678,-513.574341,462.910339,-514.417664,462.78299,-515.338989C462.749878,-515.578308,462.722229,-515.818359,462.700012,-516.059021z"/>
    <path transform="matrix(1,0,0,-1,0,-643)" style="stroke:#000000;stroke-width:0.05mm;fill:none" d="M651,-328L651,-393L646,-393L646,-453L651,-453L651,-513L646,-513L646,-573L651,-573L651,-633L651,-638L716,-638L716,-643L776,-643L776,-638L836,-638L836,-643L896,-643L896,-638L956,-638L961,-638L961,-573L966,-573L966,-513L961,-513L961,-453L966,-453L966,-393L961,-393L961,-333L961,-328L896,-328L896,-323L836,-323L836,-328L776,-328L776,-323L716,-323L716,-328L656,-328L651,-328z"/>
    <path transform="matrix(1,0,0,-1,0,-748.474243)" style="stroke:#000000;stroke-width:0.05mm;fill:none" d="M829,-492L828.625,-492C828.777222,-493.204895,828.884644,-494.415131,828.947021,-495.627991C828.981873,-496.313782,828.999512,-497.000336,829,-497.687012L829,-511.781006L823.812012,-511.781006L823.812012,-462.156006L828.031006,-462.156006L828.75,-466.843994L829,-466.843994C829.587097,-466.007751,830.264099,-465.238495,831.018982,-464.549988C831.805969,-463.833618,832.69458,-463.237518,833.656006,-462.781006C834.835938,-462.233978,836.091248,-461.867218,837.380005,-461.692993C838.165161,-461.583191,838.957153,-461.529053,839.75,-461.531006C841.268372,-461.515839,842.781067,-461.718201,844.242004,-462.131989C846.627319,-462.814087,848.735657,-464.233521,850.265015,-466.187012C852.28302,-468.724335,853.476318,-472.097015,853.844971,-476.304993C853.928772,-477.284393,853.969849,-478.267029,853.968018,-479.25C853.968018,-484.875336,852.713013,-489.244995,850.203003,-492.359009C848.062683,-495.041168,844.897827,-496.705566,841.474976,-496.949005C840.901672,-497.004578,840.325989,-497.031952,839.75,-497.031006C838.416931,-497.038483,837.088318,-496.876526,835.796021,-496.549011C835.057678,-496.358795,834.336487,-496.107269,833.640015,-495.796997C831.796692,-494.974335,830.25,-493.708649,829,-492z"/>
    <path transform="matrix(1,0,0,-1,0,-748.474243)" style="stroke:#000000;stroke-width:0.05mm;fill:none" d="M778.312012,-492.125L778.312012,-496.093994C778.115601,-496.186798,777.913513,-496.266968,777.70697,-496.334015C777.276306,-496.476685,776.753296,-496.602997,776.138,-496.713013C776.03479,-496.731506,775.931458,-496.749176,775.828003,-496.765991C775.341553,-496.845367,774.8526,-496.908752,774.362,-496.955994C773.901367,-497,773.463989,-497.024658,773.049988,-497.029999C772.991699,-497.030701,772.933289,-497.031036,772.875,-497.031006C771.524658,-497.052002,770.178772,-496.871002,768.882019,-496.493988C764.918701,-495.27066,762.937012,-491.960327,762.937012,-486.562988L762.937012,-466.187988L758.031006,-466.187988L758.031006,-463.687988L762.937012,-461.531006L765.125,-454.218994L768.125,-454.218994L768.125,-462.156006L778.062012,-462.156006L778.062012,-466.187988L768.125,-466.187988L768.125,-486.343994C768.120972,-486.958557,768.171204,-487.572266,768.275024,-488.178009C768.39502,-488.849335,768.58667,-489.450653,768.849976,-489.981995C769.047058,-490.384064,769.296936,-490.758026,769.593018,-491.093994C770.359802,-491.957764,771.411316,-492.517395,772.55603,-492.67099C772.90979,-492.724854,773.267151,-492.751282,773.625,-492.75C774.459961,-492.751556,775.293823,-492.691711,776.119995,-492.571014C776.173828,-492.563263,776.227234,-492.555298,776.281006,-492.546997C777.13501,-492.411652,777.812012,-492.270996,778.312012,-492.125z"/>
    <path transform="matrix(1,0,0,-1,0,-748.474243)" style="stroke:#000000;stroke-width:0.05mm;fill:none" d="M814.242004,-484.463013C814.570435,-482.745026,814.729858,-480.999054,814.718018,-479.25C814.718018,-477.03067,814.483032,-474.998657,814.013,-473.153992C813.405273,-470.622253,812.19458,-468.274933,810.484009,-466.312012C808.806091,-464.391663,806.621399,-462.982574,804.179993,-462.246002C802.518982,-461.75473,800.794067,-461.513733,799.062012,-461.531006C797.848816,-461.525513,796.637512,-461.629578,795.442993,-461.84201C792.355286,-462.340698,789.530579,-463.879333,787.437012,-466.203003C785.583008,-468.271667,784.344666,-470.884338,783.721985,-474.040985C783.396057,-475.757904,783.237976,-477.502441,783.25,-479.25C783.244446,-480.657867,783.353455,-482.063812,783.575989,-483.45401C783.860107,-485.266357,784.402588,-487.028625,785.187012,-488.687012C786.479004,-491.375,788.312317,-493.437653,790.687012,-494.875C791.726013,-495.503784,792.840149,-495.999023,794.002991,-496.348999C795.574036,-496.813049,797.204895,-497.042877,798.843018,-497.031006C800.022034,-497.036163,801.199219,-496.937775,802.361023,-496.737C805.499939,-496.245819,808.373962,-494.688904,810.5,-492.328003C811.152893,-491.599274,811.730164,-490.806213,812.223022,-489.960999C813.159668,-488.357666,813.832642,-486.524994,814.242004,-484.463013z"/>
    <path transform="matrix(1,0,0,-1,0,-748.474243)" style="stroke:#000000;stroke-width:0.05mm;fill:none" d="M789.72998,-486.450989C790.096619,-487.453491,790.608826,-488.396576,791.25,-489.25C792.598022,-491.019501,794.585815,-492.190186,796.786987,-492.510986C797.507629,-492.631744,798.237305,-492.690948,798.968018,-492.687988C800.040588,-492.69809,801.10968,-492.564911,802.146973,-492.291992C803.961182,-491.820892,805.565247,-490.755524,806.703003,-489.265991C807.470093,-488.247559,808.056641,-487.10498,808.437012,-485.888C809.041016,-484.038666,809.343018,-481.826019,809.343018,-479.25C809.343018,-474.895996,808.463013,-471.588654,806.703003,-469.328003C805.391724,-467.647339,803.498901,-466.51828,801.396973,-466.162994C800.575745,-466.008606,799.741638,-465.933258,798.906006,-465.937988C795.51001,-465.937988,792.947327,-467.052338,791.218018,-469.281006C790.483459,-470.252563,789.919739,-471.342133,789.551025,-472.502991C789.223022,-473.490326,788.981995,-474.588013,788.828003,-475.79599C788.687683,-476.941925,788.619873,-478.095551,788.625,-479.25C788.625,-482.088654,788.993347,-484.488983,789.72998,-486.450989z"/>
    <path transform="matrix(1,0,0,-1,0,-748.474243)" style="stroke:#000000;stroke-width:0.05mm;fill:none" d="M829,-478.093994L829,-479.25C828.995483,-480.433777,829.052185,-481.617096,829.169983,-482.795013C829.418701,-485.179688,829.940674,-487.097351,830.736023,-488.548004C830.932007,-488.908386,831.156006,-489.252777,831.406006,-489.578003C832.843994,-491.436676,835.060669,-492.462006,838.05603,-492.653992C838.411926,-492.676422,838.768372,-492.687439,839.125,-492.687012C841.969666,-492.687653,844.222046,-491.580322,845.882019,-489.36499C845.948792,-489.275726,846.01416,-489.185394,846.078003,-489.093994C846.846008,-487.973511,847.426941,-486.735748,847.797974,-485.428986C848.328003,-483.63501,848.593018,-481.554657,848.593018,-479.187988C848.599548,-477.946045,848.5177,-476.705292,848.348022,-475.475006C848.16803,-474.220337,847.888672,-473.083649,847.51001,-472.065002C847.161133,-471.100677,846.679138,-470.18985,846.078003,-469.359009C844.700867,-467.425018,842.541992,-466.195587,840.176025,-465.997986C839.785339,-465.957306,839.392822,-465.937286,839,-465.937988C838.063477,-465.931,837.128357,-466.012024,836.20697,-466.179993C835.170288,-466.377991,834.253967,-466.695984,833.458008,-467.134003C832.668518,-467.563934,831.971313,-468.144958,831.406006,-468.843994C830.807617,-469.606873,830.338074,-470.462494,830.015991,-471.377014C829.365295,-473.14566,829.026672,-475.384674,829,-478.093994z"/>
    <path transform="matrix(1,0,0,-1,0,-643)" style="stroke:#000000;stroke-width:0.05mm;fill:none" d="M0,-120L0,-160L5,-160L5,-220L0,-220L0,-280L5,-280L5,-340L0,-340L0,-380L70,-380L70,-375L130,-375L130,-380L190,-380L190,-375L250,-375L250,-380L310,-380L320,-380L320,-340L315,-340L315,-280L320,-280L320,-220L315,-220L315,-160L320,-160L320,-120L250,-120L250,-125L190,-125L190,-120L130,-120L130,-125L70,-125L70,-120L10,-120L0,-120z"/>
    <path transform="matrix(1,0,0,-1,0,-643)" style="stroke:#000000;stroke-width:0.05mm;fill:none" d="M328,-120L328,-160L323,-160L323,-220L328,-220L328,-280L323,-280L323,-340L328,-340L328,-380L393,-380L393,-375L453,-375L453,-380L513,-380L513,-375L573,-375L573,-380L633,-380L638,-380L638,-340L643,-340L643,-280L638,-280L638,-220L643,-220L643,-160L638,-160L638,-120L573,-120L573,-125L513,-125L513,-120L453,-120L453,-125L393,-125L393,-120L333,-120L328,-120z"/>
    <path transform="matrix(1,0,0,-1,0,-643)" style="stroke:#000000;stroke-width:0.05mm;fill:none" d="M515.335022,-263.507996L511.119995,-263.507996L511.119995,-245.505997C511.119995,-243.237335,510.603668,-241.544662,509.571014,-240.427994C508.53833,-239.310669,506.921997,-238.751999,504.721985,-238.751999C502.809326,-238.751999,501.234344,-239.091003,499.997009,-239.768997C499.355072,-240.117386,498.783386,-240.581924,498.311005,-241.139008C497.080322,-242.593674,496.412323,-244.897339,496.307007,-248.050003C496.296967,-248.352936,496.291962,-248.655884,496.291992,-248.959L496.291992,-263.507996L492.076996,-263.507996L492.076996,-224L496.291992,-224L496.291992,-235.959C496.291992,-236.994324,496.256989,-237.902664,496.187012,-238.684006C496.161804,-238.969818,496.12912,-239.254913,496.088989,-239.539001L496.342987,-239.539001C497.077789,-238.364395,498.091064,-237.389236,499.292999,-236.699997C499.486755,-236.586243,499.684204,-236.478851,499.88501,-236.378006C501.417023,-235.608002,503.164673,-235.223007,505.127991,-235.223007C506.090271,-235.217026,507.051361,-235.292297,508.001007,-235.447998C510.006348,-235.789993,511.600342,-236.522995,512.78302,-237.647003C513.598755,-238.441422,514.218384,-239.414764,514.593018,-240.490005C515.087708,-241.834,515.335022,-243.455002,515.335022,-245.352997L515.335022,-263.507996z"/>
    <path transform="matrix(1,0,0,-1,0,-643)" style="stroke:#000000;stroke-width:0.05mm;fill:none" d="M476.740997,-235.679993L486.364014,-235.679993L486.364014,-238.345993L481.209991,-238.955002C481.430206,-239.2332,481.628479,-239.528091,481.803009,-239.837006C481.976318,-240.141006,482.141663,-240.47467,482.299011,-240.837997C482.361664,-240.983536,482.421692,-241.130249,482.479004,-241.278C482.718475,-241.901398,482.880035,-242.552002,482.959991,-243.214996C483.013092,-243.646271,483.039154,-244.08046,483.037994,-244.514999C483.037994,-247.240326,482.106995,-249.415665,480.244995,-251.041C479.180206,-251.954391,477.923492,-252.616409,476.567993,-252.977997C475.639984,-253.238663,474.625,-253.397339,473.52301,-253.453995C473.207947,-253.470139,472.892487,-253.478149,472.576996,-253.477997C472.053436,-253.479309,471.530212,-253.450256,471.01001,-253.391006C470.752441,-253.361053,470.495972,-253.322372,470.240997,-253.274994C468.446991,-254.223007,467.549988,-255.416336,467.549988,-256.855011C467.549988,-257.617004,467.863007,-258.179993,468.489014,-258.544006C468.696045,-258.660004,468.91629,-258.750641,469.144989,-258.813995C469.774323,-258.997986,470.630646,-259.089996,471.713989,-259.089996L476.640015,-259.089996C477.516815,-259.085327,478.3927,-259.147491,479.26001,-259.276001C481.031342,-259.548676,482.472656,-260.121338,483.584015,-260.993988C484.820587,-261.96347,485.640411,-263.368469,485.876007,-264.921997C485.96698,-265.452759,486.011475,-265.990479,486.009003,-266.528992C486.022278,-267.603851,485.845581,-268.672638,485.487,-269.686005C484.926331,-271.218658,483.912323,-272.483002,482.445007,-273.479004C482.397644,-273.511414,482.349915,-273.543427,482.302002,-273.575012C481.29126,-274.219757,480.193909,-274.717407,479.042999,-275.053009C477.972351,-275.378326,476.783997,-275.619995,475.477997,-275.778015C474.152588,-275.931702,472.819244,-276.005829,471.484985,-276C470.426025,-276.004761,469.368011,-275.938263,468.317993,-275.800995C466.173981,-275.510315,464.423981,-274.899658,463.067993,-273.968994C462.167847,-273.371185,461.425201,-272.565063,460.903015,-271.618988C460.440338,-270.761658,460.180328,-269.789673,460.122986,-268.703003C460.114471,-268.545502,460.110138,-268.387787,460.109985,-268.230011C460.081818,-266.614044,460.661804,-265.046478,461.734985,-263.838013C462.435944,-263.049957,463.298065,-262.421783,464.263,-261.996002C464.919037,-261.702209,465.603668,-261.47702,466.306,-261.324005C465.594666,-261.002686,464.998016,-260.503326,464.515991,-259.825989C464.033325,-259.148651,463.791992,-258.361664,463.791992,-257.464996C463.787476,-256.9375,463.869568,-256.412872,464.035004,-255.912003C464.169037,-255.515121,464.360779,-255.140106,464.604004,-254.798996C464.839081,-254.473572,465.106079,-254.172409,465.401001,-253.899994C465.683685,-253.63533,466.006348,-253.373672,466.368988,-253.115005C466.629242,-252.930405,466.896088,-252.755295,467.169006,-252.589996C465.87738,-252.054321,464.764282,-251.163147,463.959015,-250.020004C463.852203,-249.872421,463.749817,-249.72168,463.652008,-249.567993C462.853912,-248.306015,462.393524,-246.860107,462.315002,-245.369003C462.300842,-245.143967,462.293854,-244.918488,462.294006,-244.692993C462.285736,-243.724014,462.393158,-242.757507,462.614014,-241.813995C462.974518,-240.209335,463.820129,-238.754501,465.036011,-237.647003C466.027161,-236.769333,467.200684,-236.122467,468.471985,-235.753006C469.738007,-235.365662,471.182678,-235.171997,472.806,-235.171997C473.520538,-235.169693,474.234406,-235.214798,474.942993,-235.307007C475.550781,-235.386383,476.151794,-235.511063,476.740997,-235.679993z"/>
    <path transform="matrix(1,0,0,-1,0,-643)" style="stroke:#000000;stroke-width:0.05mm;fill:none" d="M536.789978,-260.028992L536.789978,-263.253998C536.630249,-263.329407,536.465942,-263.394531,536.297974,-263.449005C535.891296,-263.583679,535.382324,-263.700653,534.770996,-263.799988C534.375854,-263.864685,533.978638,-263.916382,533.580017,-263.954987C533.205994,-263.990326,532.851013,-264.010345,532.515015,-264.015015C532.467346,-264.01532,532.419617,-264.01532,532.372009,-264.015015C528.078674,-264.015015,525.497681,-262.21167,524.629028,-258.605011C524.397461,-257.589935,524.286316,-256.551086,524.297974,-255.509995L524.297974,-238.955002L520.312012,-238.955002L520.312012,-236.923996L524.297974,-235.171997L526.075012,-229.229996L528.513,-229.229996L528.513,-235.679993L536.586975,-235.679993L536.586975,-238.955002L528.513,-238.955002L528.513,-255.332001C528.509766,-255.831284,528.550598,-256.329895,528.63501,-256.821991C528.732361,-257.36734,528.888,-257.856018,529.10199,-258.287994C529.262207,-258.614532,529.465332,-258.918213,529.705994,-259.19101C530.328735,-259.892975,531.182922,-260.347931,532.112976,-260.472992C532.400269,-260.516693,532.690491,-260.538086,532.981018,-260.536987C533.659668,-260.538452,534.337463,-260.48999,535.008972,-260.391998C535.052612,-260.385559,535.096497,-260.378876,535.140015,-260.372009C535.34314,-260.340088,535.545776,-260.30542,535.747986,-260.268005C536.16333,-260.190002,536.51062,-260.110321,536.789978,-260.028992z"/>
    <path transform="matrix(1,0,0,-1,0,-643)" style="stroke:#000000;stroke-width:0.05mm;fill:none" d="M445.230988,-235.475998L444.647003,-239.386993C444.205139,-239.288422,443.759857,-239.206039,443.312012,-239.139999C442.86734,-239.075333,442.447662,-239.033997,442.053009,-239.016006C441.902405,-239.009232,441.75174,-239.00589,441.601013,-239.005997C439.555389,-238.99263,437.597931,-239.83786,436.204987,-241.335999C436.074188,-241.469742,435.947144,-241.607132,435.824005,-241.748001C434.505096,-243.262909,433.693176,-245.152496,433.502014,-247.151993C433.449799,-247.625534,433.424072,-248.101608,433.424988,-248.578003L433.424988,-263.507996L429.209991,-263.507996L429.209991,-235.679993L432.687988,-235.679993L433.17099,-240.834L433.373993,-240.834C433.829315,-240.02594,434.362518,-239.264313,434.966003,-238.559998C435.591461,-237.829498,436.311066,-237.185211,437.105988,-236.643997C438.51828,-235.675766,440.192719,-235.16217,441.904999,-235.171997C442.48349,-235.170746,443.061737,-235.19545,443.638,-235.246002C444.172943,-235.292313,444.704803,-235.36911,445.230988,-235.475998z"/>
    <path transform="matrix(1,0,0,-1,0,-643)" style="stroke:#000000;stroke-width:0.05mm;fill:none" d="M454.651001,-235.679993L454.651001,-263.507996L450.437012,-263.507996L450.437012,-235.679993L454.651001,-235.679993z"/>
    <path transform="matrix(1,0,0,-1,0,-643)" style="stroke:#000000;stroke-width:0.05mm;fill:none" d="M475.294006,-262.872986L470.240997,-262.872986C469.655701,-262.869476,469.07132,-262.919006,468.494995,-263.020996C467.83432,-263.141663,467.242676,-263.337341,466.720001,-263.608002C466.380463,-263.782623,466.062347,-263.996033,465.772003,-264.243988C465.017029,-264.895782,464.503448,-265.782745,464.313995,-266.761993C464.217041,-267.228363,464.169769,-267.703674,464.173004,-268.179993C464.16571,-268.716278,464.260376,-269.249054,464.451996,-269.75C464.71933,-270.424652,465.178345,-270.989655,465.82901,-271.445007C465.910034,-271.501465,465.992737,-271.555481,466.076996,-271.606995C466.595947,-271.917633,467.154266,-272.157104,467.737,-272.319C468.780334,-272.621002,470.035004,-272.77301,471.501007,-272.774994C471.511749,-272.774994,471.525238,-272.774994,471.536011,-272.774994C475.074005,-272.774994,477.693665,-272.246002,479.394989,-271.187988C479.92807,-270.864899,480.408905,-270.462646,480.821014,-269.994995C481.567932,-269.13327,481.96875,-268.025177,481.946014,-266.88501C481.949219,-266.504822,481.914368,-266.125244,481.84201,-265.752014C481.753998,-265.318024,481.609985,-264.938995,481.410004,-264.61499C481.194427,-264.263519,480.899963,-263.96701,480.549988,-263.748993C480.253235,-263.570496,479.93457,-263.431335,479.60199,-263.334991C478.92868,-263.128326,478.059326,-262.990997,476.993988,-262.923004C476.427979,-262.888367,475.861084,-262.871704,475.294006,-262.872986z"/>
    <path transform="matrix(1,0,0,-1,0,-643)" style="stroke:#000000;stroke-width:0.05mm;fill:none" d="M466.458008,-244.591995C466.458008,-246.538666,467.007996,-248.011322,468.108002,-249.009995C468.737122,-249.570969,469.487793,-249.978317,470.300995,-250.199997C470.857666,-250.360001,471.468323,-250.457672,472.132996,-250.492996C472.323151,-250.503006,472.51358,-250.507996,472.70401,-250.507996C473.514496,-250.518845,474.322845,-250.422348,475.108002,-250.220993C477.618652,-249.53833,478.873993,-247.636337,478.873993,-244.514999C478.873993,-240.334335,476.791992,-238.244003,472.627991,-238.244003C472.02301,-238.239548,471.419189,-238.297195,470.825989,-238.416C469.696655,-238.651337,468.773987,-239.127335,468.058014,-239.843994C467.152679,-240.748672,466.631683,-242.02533,466.494995,-243.673996C466.469971,-243.979355,466.457642,-244.285599,466.458008,-244.591995z"/>
    <path transform="matrix(1,0,0,-1,0,-643)" style="stroke:#000000;stroke-width:0.05mm;fill:none" d="M450.140015,-227.367004C450.098999,-227.622269,450.079285,-227.880478,450.080994,-228.139008C450.08075,-228.297607,450.088074,-228.456116,450.102997,-228.613998C450.171661,-229.32666,450.401337,-229.875,450.791992,-230.259003C451.034607,-230.500107,451.326691,-230.685699,451.64801,-230.802994C451.943604,-230.907883,452.255341,-230.960007,452.569,-230.957001C453.246338,-230.957001,453.830322,-230.724335,454.321014,-230.259003C454.483063,-230.104721,454.618835,-229.925034,454.722992,-229.727005C454.94635,-229.307007,455.058014,-228.777664,455.058014,-228.139008C455.058014,-227.675674,454.999329,-227.271332,454.881989,-226.925995C454.773193,-226.585266,454.580261,-226.277451,454.321014,-226.031006C453.830322,-225.574326,453.246338,-225.345993,452.569,-225.345993C452.497925,-225.345642,452.42691,-225.347656,452.355988,-225.352005C451.771637,-225.379089,451.216492,-225.615479,450.791992,-226.018005C450.455322,-226.337326,450.238007,-226.787003,450.140015,-227.367004z"/>
    <path transform="matrix(1,0,0,-1,0,-643)" style="stroke:#000000;stroke-width:0.05mm;fill:none" d="M651,-5L651,-70L646,-70L646,-130L651,-130L651,-190L646,-190L646,-250L651,-250L651,-310L651,-315L716,-315L716,-320L776,-320L776,-315L836,-315L836,-320L896,-320L896,-315L956,-315L961,-315L961,-250L966,-250L966,-190L961,-190L961,-130L966,-130L966,-70L961,-70L961,-10L961,-5L896,-5L896,0L836,0L836,-5L776,-5L776,0L716,0L716,-5L656,-5L651,-5z"/>
    <circle transform="matrix(1,0,0,-1,806,-363)" style="stroke:#000000;stroke-width:0.05mm;fill:none" r="17" cx="0" cy="0"/>
    <circle transform="matrix(1,0,0,-1,825.5,-363)" style="stroke:#000000;stroke-width:0.05mm;fill:none" r="2" cx="0" cy="0"/>
    <circle transform="matrix(1,0,0,-1,786.5,-363)" style="stroke:#000000;stroke-width:0.05mm;fill:none" r="2" cx="0" cy="0"/>
    <circle transform="matrix(1,0,0,-1,730.5,-547.260986)" style="stroke:#000000;stroke-width:0.05mm;fill:none" r="1.5" cx="0" cy="0"/>
    <circle transform="matrix(1,0,0,-1,754.5,-547.260986)" style="stroke:#000000;stroke-width:0.05mm;fill:none" r="1.5" cx="0" cy="0"/>
    <circle transform="matrix(1,0,0,-1,730.5,-577.260986)" style="stroke:#000000;stroke-width:0.05mm;fill:none" r="1.5" cx="0" cy="0"/>
    <circle transform="matrix(1,0,0,-1,754.5,-577.260986)" style="stroke:#000000;stroke-width:0.05mm;fill:none" r="1.5" cx="0" cy="0"/>
    <rect transform="matrix(1,0,0,-1,696,-563)" style="stroke:#000000;stroke-width:0.05mm;fill:none" x="-30" y="-45.000008" width="60" height="90.000015"/>
    <circle transform="matrix(-1,0,0,-1,881.5,-547.260986)" style="stroke:#000000;stroke-width:0.05mm;fill:none" r="1.5" cx="0" cy="0"/>
    <circle transform="matrix(-1,0,0,-1,857.5,-547.260986)" style="stroke:#000000;stroke-width:0.05mm;fill:none" r="1.5" cx="0" cy="0"/>
    <circle transform="matrix(-1,0,0,-1,881.5,-577.260986)" style="stroke:#000000;stroke-width:0.05mm;fill:none" r="1.5" cx="0" cy="0"/>
    <circle transform="matrix(-1,0,0,-1,857.5,-577.260986)" style="stroke:#000000;stroke-width:0.05mm;fill:none" r="1.5" cx="0" cy="0"/>
    <rect transform="matrix(-1,0,0,-1,916,-563)" style="stroke:#000000;stroke-width:0.05mm;fill:none" x="-30" y="-45.000008" width="60" height="90.000015"/>
    <rect transform="matrix(1,0,0,-1,806,-536.5)" style="stroke:#000000;stroke-width:0.05mm;fill:none" x="-15" y="-5" width="30" height="9.999999" rx="10"/>
    <circle transform="matrix(1,0,0,-1,806,-118)" style="stroke:#000000;stroke-width:0.05mm;fill:none" r="10" cx="0" cy="0"/>
    <circle transform="matrix(1,0,0,-1,786,-118)" style="stroke:#000000;stroke-width:0.05mm;fill:none" r="1.25" cx="0" cy="0"/>
    <circle transform="matrix(1,0,0,-1,778,-188)" style="stroke:#000000;stroke-width:0.05mm;fill:none" r="1.25" cx="0" cy="0"/>
    <circle transform="matrix(1,0,0,-1,834,-188)" style="stroke:#000000;stroke-width:0.05mm;fill:none" r="1.25" cx="0" cy="0"/>
    <circle transform="matrix(1,0,0,-1,826,-118)" style="stroke:#000000;stroke-width:0.05mm;fill:none" r="1.25" cx="0" cy="0"/>
    <circle transform="matrix(1,0,0,-1,816,-178.5)" style="stroke:#000000;stroke-width:0.05mm;fill:none" r="1" cx="0" cy="0"/>
    <circle transform="matrix(1,0,0,-1,796,-178.5)" style="stroke:#000000;stroke-width:0.05mm;fill:none" r="1" cx="0" cy="0"/>
    <circle transform="matrix(1,0,0,-1,816,-134.5)" style="stroke:#000000;stroke-width:0.05mm;fill:none" r="1" cx="0" cy="0"/>
    <circle transform="matrix(1,0,0,-1,796,-134.5)" style="stroke:#000000;stroke-width:0.05mm;fill:none" r="1" cx="0" cy="0"/>
    <path transform="matrix(1,0,0,-1,0,-642.999023)" style="stroke:#000000;stroke-width:0.05mm;fill:none" d="M911.281006,-183.998993L906.093994,-183.998993L906.093994,-161.718002C906.097717,-160.96521,906.045898,-160.213165,905.939026,-159.468002C905.695679,-157.834,905.164001,-156.537003,904.343994,-155.576996C903.669312,-154.802048,902.789612,-154.233246,901.80603,-153.936005C901.203308,-153.742004,900.534302,-153.617676,899.799011,-153.563004C899.501892,-153.54097,899.204041,-153.529953,898.906006,-153.529999C897.993835,-153.52327,897.083435,-153.610062,896.189026,-153.789001C894.301636,-154.181671,892.82196,-155.022675,891.75,-156.311996C891.114258,-157.096207,890.622009,-157.986557,890.296021,-158.942001C889.727966,-160.535995,889.44165,-162.495667,889.437012,-164.820999C889.437012,-164.838409,889.437012,-164.856583,889.437012,-164.873993L889.437012,-183.998993L884.25,-183.998993L884.25,-161.718002C884.254089,-160.96524,884.202637,-160.213181,884.096008,-159.468002C883.85199,-157.834,883.320007,-156.537003,882.5,-155.576996C881.833557,-154.812286,880.966614,-154.249084,879.997009,-153.951004C879.396362,-153.753662,878.729309,-153.625671,877.995972,-153.567001C877.674927,-153.541885,877.353027,-153.529541,877.031006,-153.529999C876.136414,-153.523285,875.243591,-153.609741,874.367004,-153.787994C873.270325,-154.020004,872.313965,-154.40834,871.497986,-154.953003C870.884216,-155.362137,870.341125,-155.868423,869.890015,-156.451996C869.332336,-157.194626,868.897156,-158.021759,868.601013,-158.901993C867.950317,-160.742004,867.625,-163.117996,867.625,-166.029999L867.625,-183.998993L862.437012,-183.998993L862.437012,-149.748993L866.656006,-149.748993L867.5,-154.436996L867.75,-154.436996C868.729309,-152.770325,870.109314,-151.468002,871.890015,-150.529999C873.400024,-149.744003,875.056519,-149.279556,876.755005,-149.166C877.127686,-149.137939,877.501282,-149.123917,877.875,-149.123993C879.160339,-149.111572,880.442871,-149.245087,881.697998,-149.522003C884.934021,-150.270676,887.159668,-152.075668,888.375,-154.936996L888.625,-154.936996C889.59491,-153.243896,891.004211,-151.844254,892.703979,-150.886002C892.822266,-150.81778,892.94165,-150.751434,893.062012,-150.686996C895,-149.644989,897.208313,-149.123993,899.687012,-149.123993C902.299011,-149.123993,904.468628,-149.575989,906.195984,-150.479996C907.009949,-150.901855,907.750732,-151.451874,908.390015,-152.108994C909.793335,-153.557007,910.685669,-155.637665,911.067017,-158.350998C911.214966,-159.44603,911.286438,-160.550034,911.281006,-161.654999L911.281006,-183.998993z"/>
    <path transform="matrix(1,0,0,-1,0,-642.999023)" style="stroke:#000000;stroke-width:0.05mm;fill:none" d="M705.906006,-179.593002L705.531006,-179.593002L704.437012,-183.998993L700.718994,-183.998993L700.718994,-135.373993L705.906006,-135.373993L705.906006,-147.186996C705.906921,-148.405487,705.887207,-149.623184,705.846985,-150.841003C705.80835,-151.992996,705.75,-153.081665,705.671997,-154.106995C705.666809,-154.174866,705.661438,-154.244141,705.656006,-154.311996L705.906006,-154.311996C707.897095,-151.456467,711.048035,-149.62645,714.515015,-149.311996C715.225525,-149.227127,715.940491,-149.185394,716.656006,-149.186996C721.156006,-149.186996,724.650696,-150.723328,727.140015,-153.796005C729.133972,-156.256668,730.329651,-159.53566,730.72699,-163.632996C730.827942,-164.700012,730.877319,-165.77124,730.875,-166.843002C730.875,-172.467667,729.61969,-176.837326,727.109009,-179.951996C724.968689,-182.634171,721.803833,-184.298553,718.380981,-184.542007C717.807617,-184.597549,717.231995,-184.624908,716.656006,-184.623993C715.322937,-184.63147,713.994324,-184.469513,712.702026,-184.141998C711.963989,-183.951752,711.243164,-183.700211,710.546997,-183.389999C708.703003,-182.566666,707.156006,-181.300995,705.906006,-179.593002z"/>
    <path transform="matrix(1,0,0,-1,0,-642.999023)" style="stroke:#000000;stroke-width:0.05mm;fill:none" d="M794.343994,-179.718002L794.343994,-183.686996C794.147278,-183.779846,793.944885,-183.860001,793.737976,-183.927002C793.307983,-184.069672,792.785034,-184.195999,792.169006,-184.306C792.065796,-184.324509,791.962463,-184.342178,791.859009,-184.358994C791.372559,-184.43837,790.883606,-184.50174,790.393005,-184.548996C789.932373,-184.593002,789.495361,-184.617676,789.08197,-184.623001C789.023376,-184.623718,788.9646,-184.624054,788.906006,-184.623993C787.555725,-184.644989,786.209839,-184.463989,784.913025,-184.087006C780.950317,-182.863663,778.968994,-179.552994,778.968994,-174.154999L778.968994,-153.779999L774.062012,-153.779999L774.062012,-151.279999L778.968994,-149.123993L781.156006,-141.811996L784.156006,-141.811996L784.156006,-149.748993L794.093994,-149.748993L794.093994,-153.779999L784.156006,-153.779999L784.156006,-173.936996C784.152283,-174.55159,784.20282,-175.165298,784.307007,-175.770996C784.427002,-176.442337,784.618347,-177.043671,784.880981,-177.574997C785.078369,-177.977127,785.328613,-178.351089,785.625,-178.686996C786.391479,-179.550552,787.442566,-180.110168,788.586975,-180.264008C788.940735,-180.317886,789.298157,-180.344284,789.656006,-180.343002C790.491272,-180.344604,791.3255,-180.284775,792.151978,-180.164001C792.205383,-180.156265,792.258667,-180.14827,792.312012,-180.139999C793.166687,-180.004669,793.843994,-179.863998,794.343994,-179.718002z"/>
    <path transform="matrix(1,0,0,-1,0,-642.999023)" style="stroke:#000000;stroke-width:0.05mm;fill:none" d="M816.937012,-179.718002L816.937012,-183.686996C816.740662,-183.7798,816.538574,-183.85997,816.33197,-183.927002C815.901978,-184.069672,815.379028,-184.195999,814.763,-184.306C814.65979,-184.324509,814.556458,-184.342178,814.453003,-184.358994C813.966553,-184.43837,813.4776,-184.50174,812.987,-184.548996C812.526367,-184.593002,812.089355,-184.617676,811.676025,-184.623001C811.61731,-184.623718,811.558716,-184.624054,811.5,-184.623993C810.149719,-184.644989,808.803833,-184.463989,807.507019,-184.087006C803.543701,-182.863663,801.562012,-179.552994,801.562012,-174.154999L801.562012,-153.779999L796.656006,-153.779999L796.656006,-151.279999L801.562012,-149.123993L803.75,-141.811996L806.75,-141.811996L806.75,-149.748993L816.687012,-149.748993L816.687012,-153.779999L806.75,-153.779999L806.75,-173.936996C806.746277,-174.55159,806.796814,-175.165298,806.901001,-175.770996C807.020325,-176.442337,807.21167,-177.043671,807.474976,-177.574997C807.672363,-177.977127,807.922607,-178.351089,808.218994,-178.686996C808.985535,-179.550552,810.036621,-180.110184,811.18103,-180.264008C811.534729,-180.317871,811.892151,-180.344284,812.25,-180.343002C813.085266,-180.344604,813.919495,-180.284775,814.745972,-180.164001C814.799377,-180.156265,814.852661,-180.14827,814.906006,-180.139999C815.76001,-180.004669,816.437012,-179.863998,816.937012,-179.718002z"/>
    <path transform="matrix(1,0,0,-1,0,-642.999023)" style="stroke:#000000;stroke-width:0.05mm;fill:none" d="M769.023987,-172.056C769.352417,-170.338043,769.511841,-168.592041,769.5,-166.843002C769.5,-164.623672,769.264648,-162.591675,768.794006,-160.746994C768.186279,-158.21524,766.975586,-155.86792,765.265015,-153.904999C763.587158,-151.98465,761.402466,-150.575562,758.960999,-149.839005C757.300354,-149.347809,755.575745,-149.106812,753.843994,-149.123993C752.630798,-149.118484,751.419495,-149.22258,750.224976,-149.434998C747.137268,-149.933701,744.312622,-151.472336,742.218994,-153.796005C740.36499,-155.863998,739.126648,-158.476669,738.504028,-161.634003C738.177734,-163.350876,738.019287,-165.095444,738.031006,-166.843002C738.025513,-168.250519,738.134521,-169.656189,738.356995,-171.046005C738.641296,-172.858765,739.184204,-174.621384,739.968994,-176.279999C741.260315,-178.968002,743.093689,-181.03067,745.468994,-182.468002C746.507629,-183.09671,747.621399,-183.591949,748.783997,-183.942001C750.355347,-184.406158,751.986572,-184.635971,753.625,-184.623993C754.803711,-184.629074,755.98053,-184.530701,757.142029,-184.330002C760.280945,-183.838821,763.154968,-182.281891,765.281006,-179.921005C765.933899,-179.192276,766.511169,-178.399216,767.004028,-177.554001C767.941345,-175.950668,768.614624,-174.117996,769.023987,-172.056z"/>
    <path transform="matrix(1,0,0,-1,0,-642.999023)" style="stroke:#000000;stroke-width:0.05mm;fill:none" d="M852.867004,-172.056C853.19574,-170.338074,853.35553,-168.592072,853.343994,-166.843002C853.343994,-164.623672,853.108643,-162.591675,852.638,-160.746994C852.030273,-158.21524,850.81958,-155.86792,849.109009,-153.904999C847.431152,-151.98465,845.24646,-150.575562,842.804993,-149.839005C841.143982,-149.347702,839.419067,-149.10672,837.687012,-149.123993C836.473816,-149.118484,835.262512,-149.22258,834.067993,-149.434998C830.980286,-149.933701,828.15564,-151.472336,826.062012,-153.796005C824.208679,-155.863998,822.970337,-158.476669,822.346985,-161.634003C822.021057,-163.350906,821.862976,-165.095474,821.875,-166.843002C821.869507,-168.250519,821.978516,-169.656189,822.200989,-171.046005C822.484985,-172.858719,823.027527,-174.621338,823.812012,-176.279999C825.104004,-178.968002,826.937317,-181.03067,829.312012,-182.468002C830.351013,-183.096771,831.465149,-183.59201,832.627991,-183.942001C834.199341,-184.406158,835.830566,-184.635971,837.468994,-184.623993C838.647705,-184.629074,839.824524,-184.530701,840.986023,-184.330002C844.124939,-183.838821,846.998962,-182.281891,849.125,-179.921005C849.777893,-179.192276,850.355164,-178.399216,850.848022,-177.554001C851.785339,-175.950668,852.458374,-174.117996,852.867004,-172.056z"/>
    <path transform="matrix(1,0,0,-1,0,-642.999023)" style="stroke:#000000;stroke-width:0.05mm;fill:none" d="M744.510986,-174.044006C744.877686,-175.046494,745.389832,-175.989594,746.031006,-176.843002C747.379028,-178.612503,749.366821,-179.783203,751.567993,-180.104004C752.289063,-180.224472,753.018982,-180.28334,753.75,-180.279999C754.822571,-180.290405,755.891663,-180.157578,756.929016,-179.884995C758.742859,-179.413696,760.346497,-178.348343,761.484009,-176.858994C762.251099,-175.840576,762.837646,-174.697968,763.218018,-173.481003C763.822693,-171.630997,764.125,-169.418335,764.125,-166.843002C764.125,-162.488998,763.24469,-159.181671,761.484009,-156.921005C760.172913,-155.240555,758.280518,-154.111526,756.179016,-153.755997C755.357483,-153.601212,754.522949,-153.525528,753.687012,-153.529999C750.291687,-153.529999,747.729309,-154.644669,746,-156.873993C745.265442,-157.845551,744.701721,-158.935135,744.333008,-160.095993C744.004333,-161.083328,743.763367,-162.180664,743.609985,-163.388C743.469238,-164.534225,743.401123,-165.688187,743.406006,-166.843002C743.406006,-169.681671,743.774353,-172.082001,744.510986,-174.044006z"/>
    <path transform="matrix(1,0,0,-1,0,-642.999023)" style="stroke:#000000;stroke-width:0.05mm;fill:none" d="M828.35498,-174.044006C828.72168,-175.046494,829.233826,-175.989594,829.875,-176.843002C831.223022,-178.612503,833.210815,-179.783203,835.411987,-180.104004C836.133057,-180.224472,836.862976,-180.28334,837.593994,-180.279999C838.666138,-180.290314,839.734924,-180.157471,840.771973,-179.884995C842.586182,-179.41391,844.190247,-178.348541,845.328003,-176.858994C846.095093,-175.840576,846.681641,-174.697968,847.062012,-173.481003C847.666687,-171.630997,847.968994,-169.418335,847.968994,-166.843002C847.968994,-162.488998,847.088684,-159.181671,845.328003,-156.921005C844.016907,-155.240555,842.124512,-154.111526,840.02301,-153.755997C839.201477,-153.601212,838.366943,-153.525528,837.531006,-153.529999C834.13501,-153.529999,831.572693,-154.644669,829.843994,-156.873993C829.10907,-157.84549,828.544983,-158.935074,828.176025,-160.095993C827.848022,-161.083328,827.606995,-162.180664,827.453003,-163.388C827.312622,-164.534256,827.244873,-165.688202,827.25,-166.843002C827.25,-169.681671,827.618347,-172.082001,828.35498,-174.044006z"/>
    <path transform="matrix(1,0,0,-1,0,-642.999023)" style="stroke:#000000;stroke-width:0.05mm;fill:none" d="M715.906006,-153.529999C714.958923,-153.523102,714.013489,-153.608505,713.083008,-153.785004C712.010986,-153.996994,711.067993,-154.341324,710.254028,-154.817993C709.478027,-155.268417,708.797302,-155.865906,708.25,-156.576996C706.687317,-158.608322,705.906006,-162.030334,705.906006,-166.843002C705.901489,-168.026794,705.958191,-169.210068,706.075989,-170.388C706.324646,-172.772659,706.84668,-174.690338,707.642029,-176.141006C707.838013,-176.501373,708.062012,-176.845779,708.312012,-177.171005C709.750671,-179.029663,711.967285,-180.054993,714.961975,-180.246994C715.317871,-180.269424,715.674377,-180.280426,716.031006,-180.279999C717.023804,-180.290665,718.012939,-180.158295,718.968018,-179.886993C720.689819,-179.392899,722.176392,-178.295731,723.156006,-176.796005C723.802124,-175.812347,724.298889,-174.738342,724.630005,-173.608994C724.937988,-172.600327,725.164307,-171.485001,725.309021,-170.263C725.440796,-169.106735,725.504578,-167.943741,725.5,-166.779999C725.504517,-165.613403,725.442444,-164.44751,725.314026,-163.287994C725.021362,-160.741333,724.381348,-158.699341,723.393982,-157.162003C723.317505,-157.043411,723.238159,-156.926697,723.156006,-156.811996C722.009399,-155.207001,720.281311,-154.113297,718.340027,-153.764008C717.538757,-153.603317,716.723206,-153.524918,715.906006,-153.529999z"/>
    <circle transform="matrix(1,-0,-0,-1,830.5,-622.5)" style="stroke:#000000;stroke-width:0.05mm;fill:none" r="1.25" cx="0" cy="0"/>
    <circle transform="matrix(1,-0,-0,-1,781.5,-622.5)" style="stroke:#000000;stroke-width:0.05mm;fill:none" r="1.25" cx="0" cy="0"/>
    <circle transform="matrix(1,-0,-0,-1,830.5,-564.5)" style="stroke:#000000;stroke-width:0.05mm;fill:none" r="1.25" cx="0" cy="0"/>
    <circle transform="matrix(1,-0,-0,-1,781.5,-564.5)" style="stroke:#000000;stroke-width:0.05mm;fill:none" r="1.25" cx="0" cy="0"/>
    <path transform="matrix(1,0,0,-1,-8.585938,279.460022)" style="stroke:#000000;stroke-width:0.05mm;fill:none" d="M166.98584,498.760376C166.98584,495.170593,164.075745,492.260376,160.48584,492.260376C156.896057,492.260376,153.98584,495.170593,153.98584,498.760376C153.98584,502.350281,156.896057,505.260376,160.48584,505.260376C164.075745,505.260376,166.98584,502.350281,166.98584,498.760376z"/>
    <path transform="matrix(1,0,0,-1,-8.585938,279.460022)" style="stroke:#000000;stroke-width:0.05mm;fill:none" d="M180.085876,498.860382C180.085876,496.651276,178.295044,494.860352,176.085846,494.860352C173.87677,494.860352,172.085846,496.651276,172.085846,498.860382C172.085846,501.06958,173.87677,502.860413,176.085846,502.860413C178.295044,502.860413,180.085876,501.06958,180.085876,498.860382z"/>
    <path transform="matrix(1,0,0,-1,-8.585938,279.460022)" style="stroke:#000000;stroke-width:0.05mm;fill:none" d="M203.685852,504.6604C203.685852,504.108032,203.238159,503.6604,202.685852,503.6604C202.133667,503.6604,201.685852,504.108032,201.685852,504.6604C201.685852,505.212646,202.133667,505.6604,202.685852,505.6604C203.238159,505.6604,203.685852,505.212646,203.685852,504.6604z"/>
    <path transform="matrix(1,0,0,-1,-8.585938,279.460022)" style="stroke:#000000;stroke-width:0.05mm;fill:none" d="M152.085846,493.960358C152.085846,493.408081,151.638153,492.960388,151.085876,492.960388C150.533661,492.960388,150.085846,493.408081,150.085846,493.960358C150.085846,494.512695,150.533661,494.960388,151.085876,494.960388C151.638153,494.960388,152.085846,494.512695,152.085846,493.960358z"/>
    <rect transform="matrix(1,0,0,-1,160,-116)" style="stroke:#000000;stroke-width:0.05mm;fill:none" x="-64" y="-16" width="128" height="32"/>
    <path transform="matrix(1,0,0,-1,-70,-569)" style="stroke:#000000;stroke-width:0.05mm;fill:none" d="M195.598007,-255.255997L195.800995,-255.255997C196.358322,-254.465332,197.138657,-253.486008,198.141998,-252.317993C198.467377,-251.940125,198.795441,-251.56546,199.126999,-251.192993L208.115005,-241.671997L213.117004,-241.671997L201.843994,-253.529007L213.904007,-269.5L208.800995,-269.5L198.975006,-256.346985L195.800995,-259.089996L195.800995,-269.5L191.636993,-269.5L191.636993,-229.992004L195.800995,-229.992004L195.800995,-250.938995C195.8004,-251.203796,195.796082,-251.468338,195.787994,-251.733002C195.763336,-252.59967,195.702332,-253.738663,195.604996,-255.149994C195.60202,-255.195236,195.600998,-255.210754,195.598007,-255.255997z"/>
    <path transform="matrix(1,0,0,-1,-70,-569)" style="stroke:#000000;stroke-width:0.05mm;fill:none" d="M110.310997,-265.920013L110.005997,-265.920013L109.116997,-269.5L106.096001,-269.5L106.096001,-229.992004L110.310997,-229.992004L110.310997,-239.589996C110.311722,-240.579971,110.295723,-241.569565,110.263,-242.559006C110.231003,-243.494995,110.183327,-244.379669,110.120003,-245.212997C110.115753,-245.268387,110.111427,-245.323624,110.107002,-245.378998L110.310997,-245.378998C111.928543,-243.058945,114.488327,-241.571884,117.305,-241.315994C117.882439,-241.247223,118.463493,-241.213486,119.044998,-241.214996C120.270157,-241.202789,121.490784,-241.365433,122.669998,-241.697998C124.600853,-242.249359,126.311417,-243.38974,127.563004,-244.960007C128.550735,-246.205719,129.290115,-247.629486,129.740997,-249.154007C130.098328,-250.306,130.343658,-251.572006,130.477005,-252.951996C130.55928,-253.818863,130.59967,-254.689224,130.598007,-255.559998C130.598007,-258.785339,130.090012,-261.502686,129.074005,-263.712006C128.667572,-264.605774,128.151611,-265.445526,127.538002,-266.212006C125.798843,-268.391296,123.227173,-269.7435,120.445999,-269.94101C119.98037,-269.986267,119.512817,-270.008606,119.044998,-270.007996C117.961723,-270.014008,116.882057,-269.882263,115.832001,-269.615997C115.232338,-269.461426,114.646637,-269.25705,114.081001,-269.005005C112.573441,-268.328461,111.272476,-267.263885,110.310997,-265.920013z"/>
    <path transform="matrix(1,0,0,-1,-70,-569)" style="stroke:#000000;stroke-width:0.05mm;fill:none" d="M158.197006,-269.5L155.074005,-269.5L154.235992,-265.539001L154.033005,-265.539001C153.053009,-266.769684,152.075333,-267.720001,151.100006,-268.390015C150.715637,-268.656555,150.307983,-268.887817,149.882004,-269.080994C149.237564,-269.364075,148.564285,-269.576324,147.873993,-269.713989C147.224655,-269.848663,146.524002,-269.936981,145.772003,-269.979004C145.419983,-269.998474,145.067566,-270.008148,144.714996,-270.007996C142.507675,-270.007996,140.682343,-269.553009,139.238998,-268.643005C138.880203,-268.417023,138.541916,-268.160034,138.227997,-267.875C137.169205,-266.903259,136.438812,-265.626282,136.138,-264.221008C135.959457,-263.428589,135.872559,-262.618256,135.878998,-261.806C135.75885,-258.888123,137.39093,-256.179901,140.026993,-254.923004C142.086334,-253.827667,144.912338,-253.188339,148.505005,-253.005005C148.790207,-252.990372,149.075562,-252.978699,149.360992,-252.970001L154.084,-252.817993L154.084,-251.091995C154.084,-248.90799,153.614334,-247.29567,152.675003,-246.255005C151.925659,-245.424332,150.817993,-244.925003,149.352005,-244.757004C148.958878,-244.713196,148.563568,-244.691833,148.167999,-244.692993C147.103622,-244.701401,146.043823,-244.833633,145.009995,-245.087006C143.537994,-245.435669,141.966995,-246.015335,140.296997,-246.826004L139.001999,-243.600998C140.373337,-242.856323,141.875671,-242.272324,143.509003,-241.848999C145.142334,-241.426331,146.779999,-241.214996,148.421997,-241.214996C149.329224,-241.209824,150.235535,-241.274017,151.132996,-241.406998C152.062332,-241.550323,152.897659,-241.774323,153.639008,-242.078995C154.43306,-242.395126,155.164215,-242.850616,155.798004,-243.423996C157.052002,-244.578674,157.814667,-246.279663,158.085999,-248.526993C158.162506,-249.184509,158.19957,-249.846054,158.197006,-250.507996L158.197006,-269.5z"/>
    <path transform="matrix(1,0,0,-1,-70,-569)" style="stroke:#000000;stroke-width:0.05mm;fill:none" d="M185.440994,-242.610992L184.145996,-246.190994C183.481445,-245.927063,182.802322,-245.701355,182.112,-245.514999C181.776642,-245.423477,181.439255,-245.339798,181.100006,-245.264008C180.661652,-245.165283,180.219681,-245.083557,179.774994,-245.018997C179.201004,-244.936996,178.669327,-244.895996,178.179993,-244.895996C173.158005,-244.895996,170.366333,-247.740662,169.804993,-253.429993C169.73233,-254.188797,169.696945,-254.950714,169.699005,-255.712997C169.693863,-256.707275,169.761383,-257.700562,169.901001,-258.684998C170.049667,-259.689667,170.279327,-260.599976,170.589996,-261.415985C170.87851,-262.190796,171.275452,-262.920715,171.768997,-263.584015C172.820755,-264.980988,174.377411,-265.91095,176.106003,-266.174988C176.69838,-266.278107,177.298706,-266.328644,177.899994,-266.325989C179.547424,-266.318359,181.185669,-266.080078,182.766998,-265.618011C183.536957,-265.396576,184.294098,-265.132843,185.035004,-264.828003L185.035004,-268.559998C183.436325,-269.388672,181.481659,-269.861664,179.171005,-269.979004C178.781677,-269.998535,178.391815,-270.008179,178.001999,-270.007996C176.711456,-270.01886,175.424484,-269.871063,174.169998,-269.567993C172.035721,-269.067383,170.107132,-267.922272,168.645996,-266.287994C167.468994,-264.940887,166.602844,-263.351318,166.108994,-261.631989C165.737,-260.399323,165.498657,-259.041992,165.393997,-257.559998C165.352188,-256.961884,165.331512,-256.362579,165.332001,-255.763C165.332001,-252.39299,165.919998,-249.577332,167.095993,-247.315994C167.531555,-246.472229,168.068893,-245.685028,168.695999,-244.972C170.264496,-243.211136,172.361115,-242.005646,174.671997,-241.535995C175.857727,-241.280075,177.068008,-241.155334,178.281006,-241.164001C179.618332,-241.164001,180.955673,-241.307663,182.292999,-241.595001C182.685287,-241.678818,183.075165,-241.773865,183.462006,-241.880005C184.245331,-242.095993,184.896667,-242.335327,185.416,-242.598007C185.424301,-242.60228,185.432724,-242.606659,185.440994,-242.610992z"/>
    <path transform="matrix(1,0,0,-1,-70,-569)" style="stroke:#000000;stroke-width:0.05mm;fill:none" d="M118.435997,-244.744003C117.66642,-244.738312,116.898117,-244.807632,116.141998,-244.951004C115.270668,-245.123001,114.504333,-245.402664,113.843002,-245.789993C113.21257,-246.15593,112.659576,-246.641327,112.214996,-247.218994C111.099663,-248.669662,110.474327,-250.992004,110.338997,-254.186005C110.319969,-254.643707,110.310631,-255.101913,110.310997,-255.559998C110.3069,-256.522034,110.352631,-257.483673,110.447998,-258.44101C110.650673,-260.378326,111.074997,-261.93631,111.721001,-263.11499C111.88044,-263.407867,112.06266,-263.687714,112.265999,-263.951996C113.055618,-264.956482,114.140053,-265.688446,115.366997,-266.045013C116.058327,-266.261658,116.825668,-266.397003,117.668999,-266.450989C117.957977,-266.469269,118.247452,-266.478271,118.537003,-266.477997C119.343857,-266.486847,120.147781,-266.379395,120.924004,-266.158997C122.322807,-265.757263,123.530357,-264.865631,124.325996,-263.647003C125.23333,-262.299011,125.81633,-260.529663,126.074997,-258.338989C126.182022,-257.399506,126.23378,-256.454559,126.230003,-255.509003C126.234016,-254.561249,126.183937,-253.614044,126.080002,-252.671997C125.823334,-250.44133,125.238663,-248.687332,124.325996,-247.410004C123.394463,-246.105774,121.990372,-245.216965,120.413002,-244.932999C119.762154,-244.802856,119.099716,-244.739532,118.435997,-244.744003z"/>
    <path transform="matrix(1,0,0,-1,-70,-569)" style="stroke:#000000;stroke-width:0.05mm;fill:none" d="M153.981995,-258.328003L153.981995,-255.813995L149.768005,-255.992004C148.941589,-256.018616,148.116638,-256.078308,147.294998,-256.17099C145.669006,-256.360321,144.346664,-256.679993,143.328003,-257.130005C143.048706,-257.25177,142.778366,-257.393127,142.518997,-257.553009C141.344818,-258.257538,140.555603,-259.458649,140.375,-260.81601C140.321793,-261.160431,140.2957,-261.508484,140.296997,-261.856995C140.293167,-262.321869,140.343155,-262.785645,140.445999,-263.239014C140.649338,-264.102325,141.061005,-264.801331,141.681,-265.335999C142.1819,-265.759277,142.767731,-266.070282,143.399002,-266.247986C143.852997,-266.38266,144.351669,-266.468994,144.895004,-266.506989C145.114014,-266.521942,145.333496,-266.529297,145.552994,-266.528992C146.395111,-266.535156,147.235382,-266.449646,148.059006,-266.273987C149.527008,-265.94931,150.752335,-265.315002,151.735001,-264.371002C152.720917,-263.412903,153.405594,-262.187775,153.705002,-260.846008C153.889664,-260.078003,153.981995,-259.238678,153.981995,-258.328003z"/>
    <rect transform="matrix(1,0,0,-1,160,-429.000031)" style="stroke:#000000;stroke-width:0.05mm;fill:none" x="-83.5" y="-51" width="167" height="102"/>
    <circle transform="matrix(1,0,0,-1,238.5,-485.000031)" style="stroke:#000000;stroke-width:0.05mm;fill:none" r="1.5" cx="0" cy="0"/>
    <circle transform="matrix(1,0,0,-1,81.5,-485.000031)" style="stroke:#000000;stroke-width:0.05mm;fill:none" r="1.5" cx="0" cy="0"/>
    <circle transform="matrix(1,0,0,-1,238.5,-370.100006)" style="stroke:#000000;stroke-width:0.05mm;fill:none" r="1.5" cx="0" cy="0"/>
    <circle transform="matrix(1,0,0,-1,81.5,-370.100006)" style="stroke:#000000;stroke-width:0.05mm;fill:none" r="1.5" cx="0" cy="0"/>
</svg>
